<svg width="37" height="37" viewBox="0 0 37 37" fill="none" xmlns="http://www.w3.org/2000/svg">
<path fill-rule="evenodd" clip-rule="evenodd" d="M21.5832 10.7917C21.5832 12.4945 20.2028 13.875 18.4998 13.875C16.7969 13.875 15.4165 12.4945 15.4165 10.7917C15.4165 9.08879 16.7969 7.70833 18.4998 7.70833C20.2028 7.70833 21.5832 9.08879 21.5832 10.7917ZM24.6665 10.7917C24.6665 14.1974 21.9055 16.9583 18.4998 16.9583C15.0941 16.9583 12.3332 14.1974 12.3332 10.7917C12.3332 7.38591 15.0941 4.625 18.4998 4.625C21.9055 4.625 24.6665 7.38591 24.6665 10.7917ZM9.24984 30.8333C9.24984 25.7247 13.3912 21.5833 18.4998 21.5833C23.6085 21.5833 27.7498 25.7247 27.7498 30.8333V32.375H30.8332V30.8333C30.8332 24.0218 25.3114 18.5 18.4998 18.5C11.6883 18.5 6.1665 24.0218 6.1665 30.8333V32.375H9.24984V30.8333Z" fill="#ACACAC"/>
</svg>
