<svg width="126" height="19" viewBox="0 0 126 19" fill="none" xmlns="http://www.w3.org/2000/svg">
<path d="M12.1992 3.50391H4.35938V7.72266H11.5781C12.1094 7.72266 12.5039 7.84375 12.7617 8.08594C13.0273 8.32031 13.1602 8.63281 13.1602 9.02344C13.1602 9.41406 13.0312 9.73438 12.7734 9.98438C12.5156 10.2266 12.1172 10.3477 11.5781 10.3477H4.35938V15.2344H12.4688C13.0156 15.2344 13.4258 15.3633 13.6992 15.6211C13.9805 15.8711 14.1211 16.207 14.1211 16.6289C14.1211 17.0352 13.9805 17.3672 13.6992 17.625C13.4258 17.875 13.0156 18 12.4688 18H3.01172C2.25391 18 1.70703 17.832 1.37109 17.4961C1.04297 17.1602 0.878906 16.6172 0.878906 15.8672V2.95312C0.878906 2.45312 0.953125 2.04688 1.10156 1.73438C1.25 1.41406 1.48047 1.18359 1.79297 1.04297C2.11328 0.894531 2.51953 0.820312 3.01172 0.820312H12.1992C12.7539 0.820312 13.1641 0.945313 13.4297 1.19531C13.7031 1.4375 13.8398 1.75781 13.8398 2.15625C13.8398 2.5625 13.7031 2.89063 13.4297 3.14062C13.1641 3.38281 12.7539 3.50391 12.1992 3.50391ZM18.9258 7.27734L21.5156 14.543L24.3047 6.96094C24.5234 6.35156 24.7383 5.92187 24.9492 5.67188C25.1602 5.41406 25.4805 5.28516 25.9102 5.28516C26.3164 5.28516 26.6602 5.42188 26.9414 5.69531C27.2305 5.96875 27.375 6.28516 27.375 6.64453C27.375 6.78516 27.3477 6.94922 27.293 7.13672C27.2461 7.32422 27.1875 7.5 27.1172 7.66406C27.0547 7.82812 26.9805 8.01562 26.8945 8.22656L23.8242 15.8438C23.7383 16.0625 23.625 16.3398 23.4844 16.6758C23.3516 17.0117 23.1992 17.3008 23.0273 17.543C22.8633 17.7773 22.6562 17.9609 22.4062 18.0938C22.1641 18.2266 21.8672 18.293 21.5156 18.293C21.0625 18.293 20.6992 18.1914 20.4258 17.9883C20.1602 17.7773 19.9609 17.5508 19.8281 17.3086C19.7031 17.0586 19.4883 16.5703 19.1836 15.8438L16.1367 8.30859C16.0664 8.12109 15.9922 7.93359 15.9141 7.74609C15.8438 7.55859 15.7812 7.36719 15.7266 7.17188C15.6797 6.97656 15.6562 6.80859 15.6562 6.66797C15.6562 6.44922 15.7227 6.23438 15.8555 6.02344C15.9883 5.80469 16.1719 5.62891 16.4062 5.49609C16.6406 5.35547 16.8945 5.28516 17.168 5.28516C17.6992 5.28516 18.0625 5.4375 18.2578 5.74219C18.4609 6.04688 18.6836 6.55859 18.9258 7.27734ZM38.2734 12.5742H32.0156C32.0234 13.3008 32.168 13.9414 32.4492 14.4961C32.7383 15.0508 33.1172 15.4688 33.5859 15.75C34.0625 16.0312 34.5859 16.1719 35.1562 16.1719C35.5391 16.1719 35.8867 16.1289 36.1992 16.043C36.5195 15.9492 36.8281 15.8086 37.125 15.6211C37.4219 15.4258 37.6953 15.2188 37.9453 15C38.1953 14.7812 38.5195 14.4844 38.918 14.1094C39.082 13.9688 39.3164 13.8984 39.6211 13.8984C39.9492 13.8984 40.2148 13.9883 40.418 14.168C40.6211 14.3477 40.7227 14.6016 40.7227 14.9297C40.7227 15.2188 40.6094 15.5586 40.3828 15.9492C40.1562 16.332 39.8125 16.7031 39.3516 17.0625C38.8984 17.4141 38.3242 17.707 37.6289 17.9414C36.9414 18.1758 36.1484 18.293 35.25 18.293C33.1953 18.293 31.5977 17.707 30.457 16.5352C29.3164 15.3633 28.7461 13.7734 28.7461 11.7656C28.7461 10.8203 28.8867 9.94531 29.168 9.14062C29.4492 8.32812 29.8594 7.63281 30.3984 7.05469C30.9375 6.47656 31.6016 6.03516 32.3906 5.73047C33.1797 5.41797 34.0547 5.26172 35.0156 5.26172C36.2656 5.26172 37.3359 5.52734 38.2266 6.05859C39.125 6.58203 39.7969 7.26172 40.2422 8.09766C40.6875 8.93359 40.9102 9.78516 40.9102 10.6523C40.9102 11.457 40.6797 11.9805 40.2188 12.2227C39.7578 12.457 39.1094 12.5742 38.2734 12.5742ZM32.0156 10.7578H37.8164C37.7383 9.66406 37.4414 8.84766 36.9258 8.30859C36.418 7.76172 35.7461 7.48828 34.9102 7.48828C34.1133 7.48828 33.457 7.76562 32.9414 8.32031C32.4336 8.86719 32.125 9.67969 32.0156 10.7578ZM46.5234 7.05469V7.44141C47.0859 6.69922 47.6992 6.15625 48.3633 5.8125C49.0352 5.46094 49.8047 5.28516 50.6719 5.28516C51.5156 5.28516 52.2695 5.46875 52.9336 5.83594C53.5977 6.20312 54.0938 6.72266 54.4219 7.39453C54.6328 7.78516 54.7695 8.20703 54.832 8.66016C54.8945 9.11328 54.9258 9.69141 54.9258 10.3945V16.3477C54.9258 16.9883 54.7773 17.4727 54.4805 17.8008C54.1914 18.1289 53.8125 18.293 53.3438 18.293C52.8672 18.293 52.4805 18.125 52.1836 17.7891C51.8867 17.4531 51.7383 16.9727 51.7383 16.3477V11.0156C51.7383 9.96094 51.5898 9.15625 51.293 8.60156C51.0039 8.03906 50.4219 7.75781 49.5469 7.75781C48.9766 7.75781 48.457 7.92969 47.9883 8.27344C47.5195 8.60938 47.1758 9.07422 46.957 9.66797C46.8008 10.1445 46.7227 11.0352 46.7227 12.3398V16.3477C46.7227 16.9961 46.5703 17.4844 46.2656 17.8125C45.9688 18.1328 45.582 18.293 45.1055 18.293C44.6445 18.293 44.2656 18.125 43.9688 17.7891C43.6719 17.4531 43.5234 16.9727 43.5234 16.3477V7.10156C43.5234 6.49219 43.6562 6.03906 43.9219 5.74219C44.1875 5.4375 44.5508 5.28516 45.0117 5.28516C45.293 5.28516 45.5469 5.35156 45.7734 5.48438C46 5.61719 46.1797 5.81641 46.3125 6.08203C46.4531 6.34766 46.5234 6.67188 46.5234 7.05469ZM58.3008 5.56641H58.6523V3.64453C58.6523 3.12891 58.6641 2.72656 58.6875 2.4375C58.7188 2.14063 58.7969 1.88672 58.9219 1.67578C59.0469 1.45703 59.2266 1.28125 59.4609 1.14844C59.6953 1.00781 59.957 0.9375 60.2461 0.9375C60.6523 0.9375 61.0195 1.08984 61.3477 1.39453C61.5664 1.59766 61.7031 1.84766 61.7578 2.14453C61.8203 2.43359 61.8516 2.84766 61.8516 3.38672V5.56641H63.0234C63.4766 5.56641 63.8203 5.67578 64.0547 5.89453C64.2969 6.10547 64.418 6.37891 64.418 6.71484C64.418 7.14453 64.2461 7.44531 63.9023 7.61719C63.5664 7.78906 63.082 7.875 62.4492 7.875H61.8516V13.7578C61.8516 14.2578 61.8672 14.6445 61.8984 14.918C61.9375 15.1836 62.0312 15.4023 62.1797 15.5742C62.3359 15.7383 62.5859 15.8203 62.9297 15.8203C63.1172 15.8203 63.3711 15.7891 63.6914 15.7266C64.0117 15.6562 64.2617 15.6211 64.4414 15.6211C64.6992 15.6211 64.9297 15.7266 65.1328 15.9375C65.3438 16.1406 65.4492 16.3945 65.4492 16.6992C65.4492 17.2148 65.168 17.6094 64.6055 17.8828C64.043 18.1562 63.2344 18.293 62.1797 18.293C61.1797 18.293 60.4219 18.125 59.9062 17.7891C59.3906 17.4531 59.0508 16.9883 58.8867 16.3945C58.7305 15.8008 58.6523 15.0078 58.6523 14.0156V7.875H58.2305C57.7695 7.875 57.418 7.76562 57.1758 7.54688C56.9336 7.32812 56.8125 7.05078 56.8125 6.71484C56.8125 6.37891 56.9375 6.10547 57.1875 5.89453C57.4453 5.67578 57.8164 5.56641 58.3008 5.56641ZM82.5469 11.0156V14.3086C82.5469 14.7461 82.5039 15.0977 82.418 15.3633C82.332 15.6211 82.1719 15.8555 81.9375 16.0664C81.7109 16.2773 81.418 16.4805 81.0586 16.6758C80.0195 17.2383 79.0195 17.6484 78.0586 17.9062C77.0977 18.1641 76.0508 18.293 74.918 18.293C73.5977 18.293 72.3945 18.0898 71.3086 17.6836C70.2227 17.2773 69.2969 16.6875 68.5312 15.9141C67.7656 15.1406 67.1758 14.2031 66.7617 13.1016C66.3555 12 66.1523 10.7695 66.1523 9.41016C66.1523 8.07422 66.3516 6.85156 66.75 5.74219C67.1484 4.63281 67.7344 3.69141 68.5078 2.91797C69.2812 2.14453 70.2227 1.55469 71.332 1.14844C72.4414 0.734375 73.6992 0.527344 75.1055 0.527344C76.2617 0.527344 77.2852 0.683594 78.1758 0.996094C79.0664 1.30078 79.7891 1.6875 80.3438 2.15625C80.8984 2.625 81.3164 3.12109 81.5977 3.64453C81.8789 4.16797 82.0195 4.63281 82.0195 5.03906C82.0195 5.47656 81.8555 5.85156 81.5273 6.16406C81.207 6.46875 80.8203 6.62109 80.3672 6.62109C80.1172 6.62109 79.875 6.5625 79.6406 6.44531C79.4141 6.32812 79.2227 6.16406 79.0664 5.95312C78.6367 5.28125 78.2734 4.77344 77.9766 4.42969C77.6797 4.08594 77.2773 3.79688 76.7695 3.5625C76.2695 3.32812 75.6289 3.21094 74.8477 3.21094C74.043 3.21094 73.3242 3.35156 72.6914 3.63281C72.0586 3.90625 71.5156 4.30859 71.0625 4.83984C70.6172 5.36328 70.2734 6.00781 70.0312 6.77344C69.7969 7.53906 69.6797 8.38672 69.6797 9.31641C69.6797 11.332 70.1406 12.8828 71.0625 13.9688C71.9922 15.0547 73.2852 15.5977 74.9414 15.5977C75.7461 15.5977 76.5 15.4922 77.2031 15.2812C77.9141 15.0703 78.6328 14.7695 79.3594 14.3789V11.5898H76.6641C76.0156 11.5898 75.5234 11.4922 75.1875 11.2969C74.8594 11.1016 74.6953 10.7695 74.6953 10.3008C74.6953 9.91797 74.832 9.60156 75.1055 9.35156C75.3867 9.10156 75.7656 8.97656 76.2422 8.97656H80.1914C80.6758 8.97656 81.0859 9.01953 81.4219 9.10547C81.7578 9.19141 82.0273 9.38281 82.2305 9.67969C82.4414 9.97656 82.5469 10.4219 82.5469 11.0156ZM100.284 12.6C100.524 12.088 100.756 11.64 100.98 11.256C101.22 10.872 101.452 10.552 101.676 10.296H87.6843V9.288H101.676C101.452 9.016 101.22 8.688 100.98 8.304C100.756 7.92 100.524 7.48 100.284 6.984H101.124C102.132 8.152 103.188 9.016 104.292 9.576V10.008C103.188 10.552 102.132 11.416 101.124 12.6H100.284Z" fill="#1D1D1D"/>
<path d="M117.422 0.527344C119.203 0.527344 120.73 0.890625 122.004 1.61719C123.285 2.33594 124.254 3.36328 124.91 4.69922C125.566 6.02734 125.895 7.58984 125.895 9.38672C125.895 10.7148 125.715 11.9219 125.355 13.0078C124.996 14.0938 124.457 15.0352 123.738 15.832C123.02 16.6289 122.137 17.2383 121.09 17.6602C120.043 18.082 118.844 18.293 117.492 18.293C116.148 18.293 114.945 18.0781 113.883 17.6484C112.82 17.2109 111.934 16.5977 111.223 15.8086C110.512 15.0195 109.973 14.0703 109.605 12.9609C109.246 11.8516 109.066 10.6523 109.066 9.36328C109.066 8.04297 109.254 6.83203 109.629 5.73047C110.012 4.62891 110.562 3.69141 111.281 2.91797C112 2.14453 112.875 1.55469 113.906 1.14844C114.938 0.734375 116.109 0.527344 117.422 0.527344ZM122.367 9.36328C122.367 8.10547 122.164 7.01562 121.758 6.09375C121.352 5.17187 120.77 4.47656 120.012 4.00781C119.262 3.53125 118.398 3.29297 117.422 3.29297C116.727 3.29297 116.082 3.42578 115.488 3.69141C114.902 3.94922 114.395 4.32812 113.965 4.82812C113.543 5.32813 113.207 5.96875 112.957 6.75C112.715 7.52344 112.594 8.39453 112.594 9.36328C112.594 10.3398 112.715 11.2227 112.957 12.0117C113.207 12.8008 113.555 13.457 114 13.9805C114.453 14.4961 114.969 14.8828 115.547 15.1406C116.133 15.3984 116.773 15.5273 117.469 15.5273C118.359 15.5273 119.176 15.3047 119.918 14.8594C120.668 14.4141 121.262 13.7266 121.699 12.7969C122.145 11.8672 122.367 10.7227 122.367 9.36328Z" fill="#FF2929"/>
</svg>
