<svg width="25" height="29" viewBox="0 0 25 29" fill="none" xmlns="http://www.w3.org/2000/svg">
<path d="M13.7256 0C7.5089 0 2.45118 5.76835 2.45118 12.8585C2.45118 15.3712 3.08688 17.7174 4.18375 19.7L0.73385 23.6347C-0.244617 24.7506 -0.244617 26.5598 0.73385 27.6757C1.71232 28.7916 3.29864 28.7916 4.27701 27.6757L7.72691 23.741C9.46544 24.992 11.5226 25.717 13.7256 25.717C19.9423 25.717 25 19.9487 25 12.8585C25 5.76835 19.9424 0 13.7256 0ZM13.7256 22.8596C8.89039 22.8596 4.9566 18.3731 4.9566 12.8585C4.9566 7.34395 8.89034 2.85744 13.7256 2.85744C18.5608 2.85744 22.4946 7.34395 22.4946 12.8585C22.4946 18.3731 18.5609 22.8596 13.7256 22.8596Z" fill="#ACACAC"/>
</svg>
